<?xml version="1.0" standalone="no"?>
<!DOCTYPE svg PUBLIC "-//W3C//DTD SVG 20010904//EN"
 "http://www.w3.org/TR/2001/REC-SVG-20010904/DTD/svg10.dtd">
<svg version="1.0" xmlns="http://www.w3.org/2000/svg"
 width="24pt" height="24pt" viewBox="0 0 1200.000000 1371.000000"
 preserveAspectRatio="xMidYMid meet">

<g transform="translate(0.000000,1371.000000) scale(0.100000,-0.100000)"
fill="#000000" stroke="none">
<path d="M4721 12850 c-1299 -20 -1744 -55 -2221 -175 -470 -118 -888 -320
-1240 -601 -110 -88 -397 -375 -484 -484 -406 -510 -631 -1119 -710 -1920 -42
-429 -56 -949 -63 -2380 -7 -1508 9 -2519 48 -3065 73 -1038 368 -1764 954
-2348 565 -564 1239 -857 2185 -951 429 -43 941 -56 2395 -63 1589 -7 2602 10
3125 53 612 50 1073 168 1505 387 718 365 1258 994 1522 1772 224 660 263
1225 263 3785 0 1809 -22 2560 -90 3042 -101 718 -342 1286 -746 1757 -481
561 -1100 913 -1865 1061 -533 102 -1076 127 -2969 134 -591 2 -1315 1 -1609
-4z m3394 -1088 c858 -59 1243 -131 1570 -292 417 -206 719 -507 926 -925 194
-389 276 -905 309 -1930 14 -426 7 -3563 -9 -3815 -65 -1094 -172 -1517 -490
-1944 -189 -255 -447 -469 -736 -611 -385 -190 -948 -276 -1985 -304 -470 -13
-3401 -6 -3685 8 -630 32 -991 76 -1328 161 -672 170 -1227 711 -1422 1385
-112 387 -171 988 -183 1860 -10 716 2 3423 17 3635 39 581 77 876 151 1165
89 351 250 640 500 899 278 287 612 476 1010 570 325 77 765 123 1420 150 41
1 905 2 1920 1 1277 -1 1897 -5 2015 -13z"/>
<path d="M9092 10770 c-78 -14 -169 -47 -242 -87 -96 -53 -225 -187 -278 -289
-108 -210 -108 -456 0 -668 60 -117 191 -246 308 -303 120 -59 194 -76 325
-76 171 -1 304 44 441 147 306 230 366 694 129 1002 -91 120 -246 222 -390
259 -76 20 -224 27 -293 15z"/>
<path d="M5650 9915 c-589 -73 -1113 -291 -1563 -648 -145 -114 -362 -331
-480 -477 -369 -459 -594 -997 -662 -1585 -20 -172 -20 -520 1 -695 137 -1202
958 -2207 2104 -2578 652 -211 1357 -199 2008 34 275 98 630 297 872 490 47
37 162 144 255 238 179 179 313 346 434 541 556 895 612 2031 146 2980 -444
906 -1295 1529 -2305 1686 -177 28 -634 36 -810 14z m525 -1065 c470 -44 875
-229 1213 -555 311 -299 507 -665 587 -1102 22 -119 31 -421 16 -554 -117
-1015 -969 -1778 -1986 -1779 -963 -1 -1788 684 -1970 1635 -29 154 -40 353
-26 509 37 436 192 816 470 1148 407 486 1064 757 1696 698z"/>
</g>
</svg>
